<?xml version="1.0" encoding="UTF-8" standalone="no"?>
<!-- Created with Inkscape (http://www.inkscape.org/) -->

<svg
   xmlns:ns0="http://www.iki.fi/pav/software/textext/"
   xmlns:dc="http://purl.org/dc/elements/1.1/"
   xmlns:cc="http://creativecommons.org/ns#"
   xmlns:rdf="http://www.w3.org/1999/02/22-rdf-syntax-ns#"
   xmlns:svg="http://www.w3.org/2000/svg"
   xmlns="http://www.w3.org/2000/svg"
   xmlns:sodipodi="http://sodipodi.sourceforge.net/DTD/sodipodi-0.dtd"
   xmlns:inkscape="http://www.inkscape.org/namespaces/inkscape"
   width="56.758774mm"
   height="29.861774mm"
   viewBox="0 0 56.758773 29.861774"
   version="1.1"
   id="svg901"
   inkscape:version="0.92.2 2405546, 2018-03-11"
   sodipodi:docname="bayes.svg">
  <sodipodi:namedview
     id="base"
     pagecolor="#ffffff"
     bordercolor="#666666"
     borderopacity="1.0"
     inkscape:pageopacity="0.0"
     inkscape:pageshadow="2"
     inkscape:zoom="2.8"
     inkscape:cx="-10.159948"
     inkscape:cy="123.16417"
     inkscape:document-units="mm"
     inkscape:current-layer="layer2"
     showgrid="false"
     inkscape:window-width="1918"
     inkscape:window-height="1038"
     inkscape:window-x="0"
     inkscape:window-y="20"
     inkscape:window-maximized="1"
     fit-margin-top="0"
     fit-margin-left="0"
     fit-margin-right="0"
     fit-margin-bottom="0" />
  <defs
     id="defs895" />
  <metadata
     id="metadata898">
    <rdf:RDF>
      <cc:Work
         rdf:about="">
        <dc:format>image/svg+xml</dc:format>
        <dc:type
           rdf:resource="http://purl.org/dc/dcmitype/StillImage" />
        <dc:title></dc:title>
      </cc:Work>
    </rdf:RDF>
  </metadata>
  <g
     id="layer1"
     inkscape:groupmode="layer"
     inkscape:label="Layer 1"
     transform="translate(21.50625,-34.260517)" />
  <g
     inkscape:groupmode="layer"
     id="layer2"
     inkscape:label="Layer 2"
     transform="translate(21.50625,-34.260517)">
    <g
       id="g1701"
       transform="matrix(0.44537532,0,0,0.44537532,-11.927897,19.001728)">
      <rect
         y="34.493118"
         x="-21.273649"
         height="66.583359"
         width="126.97512"
         id="rect1629"
         style="opacity:1;fill:#0975b7;fill-opacity:1;stroke:#ffffff;stroke-width:0.46520126;stroke-miterlimit:4;stroke-dasharray:none;stroke-opacity:1" />
      <g
         style="font-style:normal;font-variant:normal;font-weight:normal;font-stretch:normal;letter-spacing:normal;word-spacing:normal;text-anchor:start;fill:#e0e4e7;fill-opacity:1;fill-rule:evenodd;stroke:#000000;stroke-linecap:butt;stroke-linejoin:miter;stroke-miterlimit:10.43299961;stroke-dasharray:none;stroke-dashoffset:0;stroke-opacity:1"
         id="content"
         transform="matrix(1.058333,0,0,-1.058333,-173.43748,816.31272)"
         xml:space="preserve"
         stroke-miterlimit="10.433"
         font-style="normal"
         font-variant="normal"
         font-weight="normal"
         font-stretch="normal"
         font-size-adjust="none"
         letter-spacing="normal"
         word-spacing="normal"
         ns0:version="0.7.2"
         ns0:texconverter="pdflatex"
         ns0:pdfconverter="pstoedit"
         ns0:text="$\\mathbf{P(A|B) = \\dfrac{P(B|A)P(A)}{P(B)}}$"
         ns0:preamble="/usr/share/inkscape/extensions/default_packages.tex"
         ns0:scale="3.0">
<path
   style="font-style:normal;font-variant:normal;font-weight:normal;font-stretch:normal;letter-spacing:normal;word-spacing:normal;text-anchor:start;fill:#e0e4e7;fill-opacity:1;fill-rule:evenodd;stroke:#000000;stroke-width:0;stroke-linecap:butt;stroke-linejoin:miter;stroke-miterlimit:10.43299961;stroke-dasharray:none;stroke-opacity:1"
   inkscape:connector-curvature="0"
   d="m 151.59,705.88 -0.06,0.4 v 2.94 h 1.35 c 1.5,0 1.5,-0.75 1.5,-1.47 0,-0.7 0,-1.47 -1.51,-1.47 v 0 h -1.34 l 0.06,-0.4 h 1.77 c 1.38,0 2.54,0.71 2.54,1.87 0,1.1 -0.99,1.94 -2.64,1.94 h -4.16 v -0.47 h 1.08 v -5.88 h -1.08 v -0.46 c 0.38,0.03 1.36,0.03 1.79,0.03 0.43,0 1.4,0 1.78,-0.03 v 0.46 h -1.08 z"
   font-size-adjust="none"
   font-stretch="normal"
   font-style="normal"
   font-variant="normal"
   font-weight="normal"
   letter-spacing="normal"
   stroke-miterlimit="10.433"
   word-spacing="normal"
   id="path1553" />
<path
   style="font-style:normal;font-variant:normal;font-weight:normal;font-stretch:normal;letter-spacing:normal;word-spacing:normal;text-anchor:start;fill:#e0e4e7;fill-opacity:1;fill-rule:evenodd;stroke:#000000;stroke-width:0;stroke-linecap:butt;stroke-linejoin:miter;stroke-miterlimit:10.43299961;stroke-dasharray:none;stroke-opacity:1"
   inkscape:connector-curvature="0"
   d="m 159.85,700.49 -0.01,0.01 v 0 0.01 0 0 0.01 0 0 0.01 0 h -0.01 v 0.01 0 l -0.01,0.01 v 0.01 h -0.01 v 0.01 l -0.01,0.01 v 0 0 l -0.01,0.01 v 0 0.01 h -0.01 v 0 l -0.01,0.01 v 0 l -0.01,0.01 v 0 l -0.01,0.01 v 0.01 h -0.01 v 0.01 h -0.01 l -0.01,0.01 v 0.01 h -0.01 l -0.01,0.01 v 0.01 h -0.01 l -0.01,0.01 v 0.01 c -1.25,1.25 -1.57,3.13 -1.57,4.65 0,1.73 0.38,3.46 1.6,4.7 0.14,0.12 0.14,0.14 0.14,0.17 0,0.07 -0.05,0.1 -0.11,0.1 -0.09,0 -0.99,-0.68 -1.58,-1.94 -0.51,-1.09 -0.63,-2.2 -0.63,-3.03 0,-0.77 0.11,-1.98 0.66,-3.1 0.6,-1.22 1.46,-1.87 1.55,-1.87 0.06,0 0.11,0.03 0.11,0.1 z"
   font-size-adjust="none"
   font-stretch="normal"
   font-style="normal"
   font-variant="normal"
   font-weight="normal"
   letter-spacing="normal"
   stroke-miterlimit="10.433"
   word-spacing="normal"
   id="path1555" />
<path
   style="font-style:normal;font-variant:normal;font-weight:normal;font-stretch:normal;letter-spacing:normal;word-spacing:normal;text-anchor:start;fill:#e0e4e7;fill-opacity:1;fill-rule:evenodd;stroke:#000000;stroke-width:0;stroke-linecap:butt;stroke-linejoin:miter;stroke-miterlimit:10.43299961;stroke-dasharray:none;stroke-opacity:1"
   inkscape:connector-curvature="0"
   d="m 165.15,709.55 -0.01,0.01 -0.01,0.02 v 0.01 l -0.01,0.01 -0.01,0.02 -0.01,0.02 -0.01,0.02 -0.01,0.01 -0.01,0.02 -0.01,0.01 -0.01,0.01 -0.01,0.02 -0.01,0.01 -0.02,0.01 -0.01,0.01 h -0.01 l -0.01,0.01 -0.01,0.01 h -0.01 l -0.02,0.01 h -0.01 l -0.01,0.01 h -0.02 -0.01 -0.01 l -0.02,0.01 h -0.01 -0.01 -0.02 -0.01 -0.03 -0.03 c -0.28,0 -0.32,-0.08 -0.39,-0.26 l -2.48,-5.98 c -0.06,-0.15 -0.09,-0.23 -0.84,-0.23 h -0.21 v -0.46 c 0.38,0.01 0.85,0.03 1.16,0.03 0.39,0 0.95,0 1.32,-0.03 v 0.46 c -0.02,0 -0.89,0 -0.89,0.13 0,0.01 0.03,0.11 0.04,0.12 l 0.5,1.2 h 2.67 l -0.2,0.47 h -2.27 l 1.14,2.76 1.13,-2.76 0.2,-0.47 0.6,-1.45 h -0.95 v -0.46 c 0.38,0.03 1.33,0.03 1.76,0.03 0.4,0 1.28,0 1.62,-0.03 v 0.46 h -0.96 z"
   font-size-adjust="none"
   font-stretch="normal"
   font-style="normal"
   font-variant="normal"
   font-weight="normal"
   letter-spacing="normal"
   stroke-miterlimit="10.433"
   word-spacing="normal"
   id="path1557" />
<path
   style="font-style:normal;font-variant:normal;font-weight:normal;font-stretch:normal;letter-spacing:normal;word-spacing:normal;text-anchor:start;fill:#e0e4e7;fill-opacity:1;fill-rule:evenodd;stroke:#000000;stroke-width:0;stroke-linecap:butt;stroke-linejoin:miter;stroke-miterlimit:10.43299961;stroke-dasharray:none;stroke-opacity:1"
   inkscape:connector-curvature="0"
   d="m 170.67,709.97 v 0.03 0.04 l -0.01,0.03 v 0.01 0.02 0.02 0.01 0.02 0.01 l -0.01,0.01 v 0.02 0.01 l -0.01,0.01 v 0.02 l -0.01,0.01 -0.01,0.01 v 0.01 l -0.01,0.01 -0.01,0.01 -0.01,0.01 -0.01,0.01 h -0.01 l -0.01,0.01 v 0 h -0.01 v 0 l -0.01,0.01 h -0.01 -0.01 v 0 h -0.01 -0.01 -0.01 l -0.01,0.01 v 0 h -0.01 c -0.2,0 -0.2,-0.18 -0.2,-0.36 v -9.22 c 0,-0.18 0,-0.36 0.2,-0.36 0.2,0 0.2,0.18 0.2,0.36 z"
   font-size-adjust="none"
   font-stretch="normal"
   font-style="normal"
   font-variant="normal"
   font-weight="normal"
   letter-spacing="normal"
   stroke-miterlimit="10.433"
   word-spacing="normal"
   id="path1559" />
<path
   style="font-style:normal;font-variant:normal;font-weight:normal;font-stretch:normal;letter-spacing:normal;word-spacing:normal;text-anchor:start;fill:#e0e4e7;fill-opacity:1;fill-rule:evenodd;stroke:#000000;stroke-width:0;stroke-linecap:butt;stroke-linejoin:miter;stroke-miterlimit:10.43299961;stroke-dasharray:none;stroke-opacity:1"
   inkscape:connector-curvature="0"
   d="m 177.31,706.43 0.1,0.02 0.1,0.02 0.09,0.03 0.1,0.02 0.09,0.03 0.08,0.03 0.09,0.03 0.08,0.04 0.08,0.03 0.07,0.04 0.07,0.04 0.07,0.04 0.07,0.05 0.06,0.04 0.06,0.05 0.06,0.05 0.05,0.05 0.05,0.05 0.05,0.06 0.05,0.06 0.04,0.05 0.03,0.06 0.04,0.06 0.03,0.06 0.03,0.07 0.02,0.06 0.02,0.07 0.02,0.06 0.01,0.07 0.01,0.07 0.01,0.07 v 0.07 c 0,0.92 -0.87,1.71 -2.47,1.71 l -0.14,-0.47 c 1.01,0 1.19,-0.78 1.19,-1.24 0,-0.76 -0.48,-1.38 -1.44,-1.38 h -1.56 v -0.36 h 1.93 c 0.2,0 0.67,0 1.01,-0.42 0.33,-0.42 0.33,-0.98 0.33,-1.09 0,-0.12 0,-1.39 -1.43,-1.39 v 0 h -1.84 v 2.9 0.36 2.62 h 1.81 l 0.14,0.47 h -4.33 v -0.47 h 1.07 v -5.88 h -1.07 v -0.46 h 4.62 c 1.66,0 2.5,0.87 2.5,1.84 0,0.96 -0.86,1.62 -2.05,1.71 z"
   font-size-adjust="none"
   font-stretch="normal"
   font-style="normal"
   font-variant="normal"
   font-weight="normal"
   letter-spacing="normal"
   stroke-miterlimit="10.433"
   word-spacing="normal"
   id="path1561" />
<path
   style="font-style:normal;font-variant:normal;font-weight:normal;font-stretch:normal;letter-spacing:normal;word-spacing:normal;text-anchor:start;fill:#e0e4e7;fill-opacity:1;fill-rule:evenodd;stroke:#000000;stroke-width:0;stroke-linecap:butt;stroke-linejoin:miter;stroke-miterlimit:10.43299961;stroke-dasharray:none;stroke-opacity:1"
   inkscape:connector-curvature="0"
   d="m 182.88,705.36 v 0.07 0.08 0.08 l -0.01,0.08 v 0.17 l -0.02,0.17 -0.01,0.19 -0.02,0.18 -0.03,0.2 -0.03,0.2 -0.04,0.2 -0.05,0.21 -0.05,0.21 -0.06,0.21 -0.07,0.21 -0.08,0.22 -0.05,0.1 -0.04,0.11 -0.05,0.1 -0.05,0.11 c -0.6,1.22 -1.45,1.87 -1.55,1.87 -0.06,0 -0.1,-0.04 -0.1,-0.1 0,-0.03 0,-0.05 0.19,-0.23 0.97,-0.98 1.54,-2.56 1.54,-4.64 0,-1.7 -0.37,-3.45 -1.6,-4.7 -0.13,-0.12 -0.13,-0.14 -0.13,-0.17 0,-0.06 0.04,-0.1 0.1,-0.1 0.1,0 0.99,0.68 1.58,1.94 0.51,1.09 0.63,2.2 0.63,3.03 z"
   font-size-adjust="none"
   font-stretch="normal"
   font-style="normal"
   font-variant="normal"
   font-weight="normal"
   letter-spacing="normal"
   stroke-miterlimit="10.433"
   word-spacing="normal"
   id="path1563" />
<path
   style="font-style:normal;font-variant:normal;font-weight:normal;font-stretch:normal;letter-spacing:normal;word-spacing:normal;text-anchor:start;fill:#e0e4e7;fill-opacity:1;fill-rule:evenodd;stroke:#000000;stroke-width:0;stroke-linecap:butt;stroke-linejoin:miter;stroke-miterlimit:10.43299961;stroke-dasharray:none;stroke-opacity:1"
   inkscape:connector-curvature="0"
   d="m 193.49,706.12 h 0.03 0.03 l 0.03,0.01 h 0.01 0.02 0.01 0.02 0.01 0.02 l 0.01,0.01 h 0.01 0.02 l 0.01,0.01 h 0.01 l 0.01,0.01 0.01,0.01 h 0.01 l 0.01,0.01 0.01,0.01 0.01,0.01 0.01,0.01 v 0 l 0.01,0.01 v 0 0.01 l 0.01,0.01 v 0 0.01 0.01 h 0.01 v 0.01 0.01 0.01 0.01 0 0.01 0.01 c 0,0.2 -0.19,0.2 -0.33,0.2 h -5.97 c -0.14,0 -0.33,0 -0.33,-0.2 0,-0.2 0.19,-0.2 0.34,-0.2 z"
   font-size-adjust="none"
   font-stretch="normal"
   font-style="normal"
   font-variant="normal"
   font-weight="normal"
   letter-spacing="normal"
   stroke-miterlimit="10.433"
   word-spacing="normal"
   id="path1565" />
<path
   style="font-style:normal;font-variant:normal;font-weight:normal;font-stretch:normal;letter-spacing:normal;word-spacing:normal;text-anchor:start;fill:#e0e4e7;fill-opacity:1;fill-rule:evenodd;stroke:#000000;stroke-width:0;stroke-linecap:butt;stroke-linejoin:miter;stroke-miterlimit:10.43299961;stroke-dasharray:none;stroke-opacity:1"
   inkscape:connector-curvature="0"
   d="m 193.5,704.2 h 0.03 0.03 0.03 0.01 0.01 0.02 0.01 l 0.02,0.01 h 0.01 0.01 0.01 l 0.02,0.01 h 0.01 l 0.01,0.01 h 0.01 l 0.01,0.01 0.01,0.01 h 0.01 l 0.01,0.01 0.01,0.01 0.01,0.01 v 0 0.01 h 0.01 v 0.01 0 l 0.01,0.01 v 0.01 0 0.01 l 0.01,0.01 v 0.01 0 0.01 0.01 0.01 0.01 0.01 c 0,0.19 -0.19,0.19 -0.34,0.19 h -5.95 c -0.15,0 -0.34,0 -0.34,-0.19 0,-0.2 0.19,-0.2 0.33,-0.2 z"
   font-size-adjust="none"
   font-stretch="normal"
   font-style="normal"
   font-variant="normal"
   font-weight="normal"
   letter-spacing="normal"
   stroke-miterlimit="10.433"
   word-spacing="normal"
   id="path1567" />
<path
   style="font-style:normal;font-variant:normal;font-weight:normal;font-stretch:normal;letter-spacing:normal;word-spacing:normal;text-anchor:start;fill:#e0e4e7;fill-opacity:1;fill-rule:evenodd;stroke:#000000;stroke-width:0;stroke-linecap:butt;stroke-linejoin:miter;stroke-miterlimit:10.43299961;stroke-dasharray:none;stroke-opacity:1"
   inkscape:connector-curvature="0"
   d="m 201.23,712.62 -0.06,0.4 v 2.94 h 1.35 c 1.49,0 1.49,-0.75 1.49,-1.47 0,-0.7 0,-1.47 -1.5,-1.47 v 0 h -1.34 l 0.06,-0.4 H 203 c 1.38,0 2.54,0.71 2.54,1.87 0,1.1 -0.99,1.94 -2.64,1.94 h -4.16 v -0.47 h 1.08 v -5.88 h -1.08 v -0.46 c 0.38,0.03 1.36,0.03 1.78,0.03 0.43,0 1.41,0 1.79,-0.03 v 0.46 h -1.08 z"
   font-size-adjust="none"
   font-stretch="normal"
   font-style="normal"
   font-variant="normal"
   font-weight="normal"
   letter-spacing="normal"
   stroke-miterlimit="10.433"
   word-spacing="normal"
   id="path1569" />
<path
   style="font-style:normal;font-variant:normal;font-weight:normal;font-stretch:normal;letter-spacing:normal;word-spacing:normal;text-anchor:start;fill:#e0e4e7;fill-opacity:1;fill-rule:evenodd;stroke:#000000;stroke-width:0;stroke-linecap:butt;stroke-linejoin:miter;stroke-miterlimit:10.43299961;stroke-dasharray:none;stroke-opacity:1"
   inkscape:connector-curvature="0"
   d="m 209.48,707.23 v 0.01 0 0.01 0 0 0 0.01 0 0.01 0 h -0.01 v 0.01 0 l -0.01,0.01 v 0 l -0.01,0.01 v 0.01 h -0.01 v 0.01 0 l -0.01,0.01 v 0 h -0.01 v 0.01 0 l -0.01,0.01 v 0 l -0.01,0.01 v 0 l -0.01,0.01 v 0.01 h -0.01 v 0.01 h -0.01 l -0.01,0.01 v 0.01 h -0.01 l -0.01,0.01 v 0.01 h -0.01 l -0.01,0.01 -0.01,0.01 c -1.24,1.25 -1.56,3.13 -1.56,4.65 0,1.73 0.38,3.46 1.6,4.7 0.13,0.12 0.13,0.14 0.13,0.17 0,0.07 -0.04,0.1 -0.1,0.1 -0.1,0 -0.99,-0.68 -1.58,-1.94 -0.51,-1.09 -0.63,-2.2 -0.63,-3.03 0,-0.77 0.11,-1.98 0.66,-3.1 0.6,-1.22 1.45,-1.87 1.55,-1.87 0.06,0 0.1,0.03 0.1,0.1 z"
   font-size-adjust="none"
   font-stretch="normal"
   font-style="normal"
   font-variant="normal"
   font-weight="normal"
   letter-spacing="normal"
   stroke-miterlimit="10.433"
   word-spacing="normal"
   id="path1571" />
<path
   style="font-style:normal;font-variant:normal;font-weight:normal;font-stretch:normal;letter-spacing:normal;word-spacing:normal;text-anchor:start;fill:#e0e4e7;fill-opacity:1;fill-rule:evenodd;stroke:#000000;stroke-width:0;stroke-linecap:butt;stroke-linejoin:miter;stroke-miterlimit:10.43299961;stroke-dasharray:none;stroke-opacity:1"
   inkscape:connector-curvature="0"
   d="m 215.52,713.17 0.1,0.02 0.1,0.02 0.09,0.03 0.1,0.02 0.08,0.03 0.09,0.03 0.08,0.03 0.09,0.04 0.07,0.03 0.08,0.04 0.07,0.04 0.07,0.04 0.07,0.05 0.06,0.04 0.06,0.05 0.06,0.05 0.05,0.05 0.05,0.05 0.05,0.06 0.05,0.06 0.04,0.05 0.03,0.06 0.04,0.06 0.03,0.06 0.03,0.07 0.02,0.06 0.02,0.07 0.02,0.06 0.01,0.07 0.01,0.07 0.01,0.07 v 0.07 c 0,0.92 -0.87,1.71 -2.48,1.71 l -0.13,-0.47 c 1.01,0 1.19,-0.78 1.19,-1.24 0,-0.76 -0.48,-1.38 -1.45,-1.38 h -1.55 v -0.36 h 1.93 c 0.2,0 0.67,0 1.01,-0.42 0.33,-0.42 0.33,-0.98 0.33,-1.09 0,-0.12 0,-1.39 -1.44,-1.39 v 0 h -1.83 v 2.9 0.36 2.62 h 1.81 l 0.13,0.47 h -4.32 v -0.47 h 1.07 v -5.88 h -1.07 v -0.46 h 4.62 c 1.66,0 2.5,0.87 2.5,1.84 0,0.96 -0.86,1.62 -2.05,1.71 z"
   font-size-adjust="none"
   font-stretch="normal"
   font-style="normal"
   font-variant="normal"
   font-weight="normal"
   letter-spacing="normal"
   stroke-miterlimit="10.433"
   word-spacing="normal"
   id="path1573" />
<path
   style="font-style:normal;font-variant:normal;font-weight:normal;font-stretch:normal;letter-spacing:normal;word-spacing:normal;text-anchor:start;fill:#e0e4e7;fill-opacity:1;fill-rule:evenodd;stroke:#000000;stroke-width:0;stroke-linecap:butt;stroke-linejoin:miter;stroke-miterlimit:10.43299961;stroke-dasharray:none;stroke-opacity:1"
   inkscape:connector-curvature="0"
   d="m 219.79,716.71 v 0.03 0.04 0.03 0.01 0.02 0.02 0.01 l -0.01,0.02 v 0.01 0.01 0.02 l -0.01,0.01 v 0.01 l -0.01,0.02 v 0.01 l -0.01,0.01 -0.01,0.01 v 0.01 l -0.01,0.01 -0.01,0.01 -0.01,0.01 h -0.01 l -0.01,0.01 v 0 h -0.01 -0.01 v 0.01 h -0.01 -0.01 -0.01 v 0 h -0.01 -0.01 l -0.01,0.01 h -0.01 -0.01 c -0.2,0 -0.2,-0.18 -0.2,-0.36 v -9.22 c 0,-0.18 0,-0.36 0.2,-0.36 0.2,0 0.2,0.18 0.2,0.36 z"
   font-size-adjust="none"
   font-stretch="normal"
   font-style="normal"
   font-variant="normal"
   font-weight="normal"
   letter-spacing="normal"
   stroke-miterlimit="10.433"
   word-spacing="normal"
   id="path1575" />
<path
   style="font-style:normal;font-variant:normal;font-weight:normal;font-stretch:normal;letter-spacing:normal;word-spacing:normal;text-anchor:start;fill:#e0e4e7;fill-opacity:1;fill-rule:evenodd;stroke:#000000;stroke-width:0;stroke-linecap:butt;stroke-linejoin:miter;stroke-miterlimit:10.43299961;stroke-dasharray:none;stroke-opacity:1"
   inkscape:connector-curvature="0"
   d="m 225.7,716.29 v 0.01 l -0.01,0.02 v 0.01 l -0.01,0.01 -0.01,0.02 -0.01,0.02 -0.01,0.02 -0.01,0.01 -0.01,0.02 -0.01,0.01 -0.02,0.01 -0.01,0.02 -0.01,0.01 -0.01,0.01 -0.01,0.01 h -0.01 l -0.01,0.01 -0.02,0.01 h -0.01 l -0.01,0.01 h -0.01 l -0.02,0.01 h -0.01 -0.01 -0.02 l -0.01,0.01 h -0.01 -0.02 -0.01 -0.02 -0.03 -0.03 c -0.28,0 -0.32,-0.08 -0.39,-0.26 l -2.47,-5.98 c -0.06,-0.15 -0.09,-0.23 -0.85,-0.23 h -0.21 v -0.46 c 0.38,0.01 0.86,0.03 1.17,0.03 0.39,0 0.95,0 1.32,-0.03 v 0.46 c -0.02,0 -0.89,0 -0.89,0.13 0,0.01 0.03,0.11 0.04,0.12 l 0.5,1.2 h 2.67 l -0.2,0.47 h -2.27 l 1.13,2.76 1.14,-2.76 0.2,-0.47 0.6,-1.45 h -0.95 v -0.46 c 0.38,0.03 1.33,0.03 1.76,0.03 0.39,0 1.27,0 1.62,-0.03 v 0.46 h -0.97 z"
   font-size-adjust="none"
   font-stretch="normal"
   font-style="normal"
   font-variant="normal"
   font-weight="normal"
   letter-spacing="normal"
   stroke-miterlimit="10.433"
   word-spacing="normal"
   id="path1577" />
<path
   style="font-style:normal;font-variant:normal;font-weight:normal;font-stretch:normal;letter-spacing:normal;word-spacing:normal;text-anchor:start;fill:#e0e4e7;fill-opacity:1;fill-rule:evenodd;stroke:#000000;stroke-width:0;stroke-linecap:butt;stroke-linejoin:miter;stroke-miterlimit:10.43299961;stroke-dasharray:none;stroke-opacity:1"
   inkscape:connector-curvature="0"
   d="m 232.52,712.1 v 0.07 0.08 l -0.01,0.08 v 0.08 l -0.01,0.17 -0.01,0.17 -0.01,0.19 -0.03,0.18 -0.02,0.2 -0.04,0.2 -0.03,0.2 -0.05,0.21 -0.05,0.21 -0.07,0.21 -0.07,0.21 -0.07,0.22 -0.05,0.1 -0.04,0.11 -0.05,0.1 -0.05,0.11 c -0.6,1.22 -1.46,1.87 -1.56,1.87 -0.06,0 -0.1,-0.04 -0.1,-0.1 0,-0.03 0,-0.05 0.19,-0.23 0.98,-0.98 1.55,-2.56 1.55,-4.64 0,-1.7 -0.37,-3.45 -1.61,-4.7 -0.13,-0.12 -0.13,-0.14 -0.13,-0.17 0,-0.06 0.04,-0.1 0.1,-0.1 0.1,0 1,0.68 1.59,1.94 0.51,1.09 0.63,2.2 0.63,3.03 z"
   font-size-adjust="none"
   font-stretch="normal"
   font-style="normal"
   font-variant="normal"
   font-weight="normal"
   letter-spacing="normal"
   stroke-miterlimit="10.433"
   word-spacing="normal"
   id="path1579" />
<path
   style="font-style:normal;font-variant:normal;font-weight:normal;font-stretch:normal;letter-spacing:normal;word-spacing:normal;text-anchor:start;fill:#e0e4e7;fill-opacity:1;fill-rule:evenodd;stroke:#000000;stroke-width:0;stroke-linecap:butt;stroke-linejoin:miter;stroke-miterlimit:10.43299961;stroke-dasharray:none;stroke-opacity:1"
   inkscape:connector-curvature="0"
   d="m 236.39,712.62 -0.06,0.4 v 2.94 h 1.35 c 1.5,0 1.5,-0.75 1.5,-1.47 0,-0.7 0,-1.47 -1.51,-1.47 v 0 h -1.34 l 0.06,-0.4 h 1.77 c 1.38,0 2.54,0.71 2.54,1.87 0,1.1 -0.99,1.94 -2.64,1.94 h -4.16 v -0.47 h 1.08 v -5.88 h -1.08 v -0.46 c 0.38,0.03 1.36,0.03 1.78,0.03 0.43,0 1.41,0 1.79,-0.03 v 0.46 h -1.08 z"
   font-size-adjust="none"
   font-stretch="normal"
   font-style="normal"
   font-variant="normal"
   font-weight="normal"
   letter-spacing="normal"
   stroke-miterlimit="10.433"
   word-spacing="normal"
   id="path1581" />
<path
   style="font-style:normal;font-variant:normal;font-weight:normal;font-stretch:normal;letter-spacing:normal;word-spacing:normal;text-anchor:start;fill:#e0e4e7;fill-opacity:1;fill-rule:evenodd;stroke:#000000;stroke-width:0;stroke-linecap:butt;stroke-linejoin:miter;stroke-miterlimit:10.43299961;stroke-dasharray:none;stroke-opacity:1"
   inkscape:connector-curvature="0"
   d="m 244.64,707.23 v 0.01 0 0.01 0 0 0 0.01 0 0.01 h -0.01 v 0 0.01 0 l -0.01,0.01 v 0 l -0.01,0.01 v 0.01 h -0.01 v 0.01 h -0.01 v 0.01 0 h -0.01 v 0.01 0 l -0.01,0.01 v 0 l -0.01,0.01 v 0 l -0.01,0.01 v 0.01 h -0.01 v 0.01 h -0.01 l -0.01,0.01 v 0.01 h -0.01 l -0.01,0.01 v 0.01 h -0.01 l -0.01,0.01 -0.01,0.01 c -1.24,1.25 -1.56,3.13 -1.56,4.65 0,1.73 0.38,3.46 1.6,4.7 0.13,0.12 0.13,0.14 0.13,0.17 0,0.07 -0.04,0.1 -0.1,0.1 -0.1,0 -0.99,-0.68 -1.58,-1.94 -0.51,-1.09 -0.63,-2.2 -0.63,-3.03 0,-0.77 0.11,-1.98 0.66,-3.1 0.6,-1.22 1.45,-1.87 1.55,-1.87 0.06,0 0.1,0.03 0.1,0.1 z"
   font-size-adjust="none"
   font-stretch="normal"
   font-style="normal"
   font-variant="normal"
   font-weight="normal"
   letter-spacing="normal"
   stroke-miterlimit="10.433"
   word-spacing="normal"
   id="path1583" />
<path
   style="font-style:normal;font-variant:normal;font-weight:normal;font-stretch:normal;letter-spacing:normal;word-spacing:normal;text-anchor:start;fill:#e0e4e7;fill-opacity:1;fill-rule:evenodd;stroke:#000000;stroke-width:0;stroke-linecap:butt;stroke-linejoin:miter;stroke-miterlimit:10.43299961;stroke-dasharray:none;stroke-opacity:1"
   inkscape:connector-curvature="0"
   d="m 249.94,716.29 v 0.01 l -0.01,0.02 v 0.01 l -0.01,0.01 -0.01,0.02 -0.01,0.02 -0.01,0.02 -0.01,0.01 -0.01,0.02 -0.01,0.01 -0.01,0.01 -0.01,0.02 -0.01,0.01 -0.02,0.01 -0.01,0.01 h -0.01 l -0.01,0.01 -0.01,0.01 h -0.02 l -0.01,0.01 h -0.01 l -0.01,0.01 h -0.02 -0.01 -0.01 l -0.02,0.01 h -0.01 -0.01 -0.02 -0.01 -0.03 -0.04 c -0.27,0 -0.31,-0.08 -0.38,-0.26 l -2.48,-5.98 c -0.06,-0.15 -0.09,-0.23 -0.84,-0.23 h -0.21 v -0.46 c 0.38,0.01 0.85,0.03 1.16,0.03 0.39,0 0.95,0 1.32,-0.03 v 0.46 c -0.02,0 -0.89,0 -0.89,0.13 0,0.01 0.03,0.11 0.04,0.12 l 0.5,1.2 0.2,0.47 1.14,2.76 1.13,-2.76 h -2.27 l -0.2,-0.47 h 2.67 l 0.6,-1.45 h -0.95 v -0.46 c 0.38,0.03 1.33,0.03 1.76,0.03 0.4,0 1.28,0 1.62,-0.03 v 0.46 h -0.96 z"
   font-size-adjust="none"
   font-stretch="normal"
   font-style="normal"
   font-variant="normal"
   font-weight="normal"
   letter-spacing="normal"
   stroke-miterlimit="10.433"
   word-spacing="normal"
   id="path1585" />
<path
   style="font-style:normal;font-variant:normal;font-weight:normal;font-stretch:normal;letter-spacing:normal;word-spacing:normal;text-anchor:start;fill:#e0e4e7;fill-opacity:1;fill-rule:evenodd;stroke:#000000;stroke-width:0;stroke-linecap:butt;stroke-linejoin:miter;stroke-miterlimit:10.43299961;stroke-dasharray:none;stroke-opacity:1"
   inkscape:connector-curvature="0"
   d="m 256.76,712.1 v 0.07 0.08 0.08 0.08 l -0.01,0.17 -0.01,0.17 -0.02,0.19 -0.02,0.18 -0.03,0.2 -0.03,0.2 -0.04,0.2 -0.05,0.21 -0.05,0.21 -0.06,0.21 -0.07,0.21 -0.08,0.22 -0.04,0.1 -0.05,0.11 -0.05,0.1 -0.05,0.11 c -0.6,1.22 -1.45,1.87 -1.55,1.87 -0.06,0 -0.1,-0.04 -0.1,-0.1 0,-0.03 0,-0.05 0.19,-0.23 0.97,-0.98 1.54,-2.56 1.54,-4.64 0,-1.7 -0.37,-3.45 -1.6,-4.7 -0.13,-0.12 -0.13,-0.14 -0.13,-0.17 0,-0.06 0.04,-0.1 0.1,-0.1 0.1,0 0.99,0.68 1.58,1.94 0.51,1.09 0.63,2.2 0.63,3.03 z"
   font-size-adjust="none"
   font-stretch="normal"
   font-style="normal"
   font-variant="normal"
   font-weight="normal"
   letter-spacing="normal"
   stroke-miterlimit="10.433"
   word-spacing="normal"
   id="path1587" />
<line
   style="font-style:normal;font-variant:normal;font-weight:normal;font-stretch:normal;letter-spacing:normal;word-spacing:normal;text-anchor:start;fill:#e0e4e7;fill-opacity:1;fill-rule:evenodd;stroke:#e0e4e7;stroke-width:0.398;stroke-linecap:butt;stroke-linejoin:miter;stroke-miterlimit:10.43299961;stroke-dasharray:none;stroke-opacity:1"
   x1="198.35001"
   y1="705.37"
   x2="257.75"
   y2="705.37"
   font-size-adjust="none"
   font-stretch="normal"
   font-style="normal"
   font-variant="normal"
   font-weight="normal"
   letter-spacing="normal"
   stroke-miterlimit="10.433"
   word-spacing="normal"
   id="line1589" />
<path
   style="font-style:normal;font-variant:normal;font-weight:normal;font-stretch:normal;letter-spacing:normal;word-spacing:normal;text-anchor:start;fill:#e0e4e7;fill-opacity:1;fill-rule:evenodd;stroke:#000000;stroke-width:0;stroke-linecap:butt;stroke-linejoin:miter;stroke-miterlimit:10.43299961;stroke-dasharray:none;stroke-opacity:1"
   inkscape:connector-curvature="0"
   d="m 219.07,699.04 -0.06,0.41 v 2.94 h 1.34 c 1.5,0 1.5,-0.75 1.5,-1.47 0,-0.71 0,-1.47 -1.5,-1.47 v 0 h -1.34 l 0.06,-0.41 h 1.76 c 1.39,0 2.55,0.72 2.55,1.88 0,1.09 -0.99,1.94 -2.65,1.94 h -4.15 v -0.47 h 1.07 v -5.88 h -1.07 v -0.47 c 0.38,0.03 1.35,0.03 1.78,0.03 0.43,0 1.41,0 1.79,-0.03 v 0.47 h -1.08 z"
   font-size-adjust="none"
   font-stretch="normal"
   font-style="normal"
   font-variant="normal"
   font-weight="normal"
   letter-spacing="normal"
   stroke-miterlimit="10.433"
   word-spacing="normal"
   id="path1591" />
<path
   style="font-style:normal;font-variant:normal;font-weight:normal;font-stretch:normal;letter-spacing:normal;word-spacing:normal;text-anchor:start;fill:#e0e4e7;fill-opacity:1;fill-rule:evenodd;stroke:#000000;stroke-width:0;stroke-linecap:butt;stroke-linejoin:miter;stroke-miterlimit:10.43299961;stroke-dasharray:none;stroke-opacity:1"
   inkscape:connector-curvature="0"
   d="m 227.32,693.66 v 0 0.01 0 0 0.01 0 0 l -0.01,0.01 v 0 0.01 0 0 l -0.01,0.01 v 0 l -0.01,0.01 v 0.01 h -0.01 v 0.01 0 l -0.01,0.01 v 0 l -0.01,0.01 v 0 0.01 h -0.01 v 0 l -0.01,0.01 v 0 l -0.01,0.01 v 0.01 h -0.01 v 0.01 h -0.01 v 0.01 l -0.01,0.01 h -0.01 v 0.01 l -0.01,0.01 h -0.01 v 0.01 l -0.01,0.01 -0.01,0.01 c -1.25,1.25 -1.56,3.13 -1.56,4.65 0,1.72 0.37,3.45 1.6,4.69 0.13,0.12 0.13,0.14 0.13,0.17 0,0.07 -0.04,0.1 -0.1,0.1 -0.1,0 -1,-0.67 -1.59,-1.94 -0.5,-1.09 -0.62,-2.19 -0.62,-3.02 0,-0.78 0.11,-1.98 0.65,-3.1 0.6,-1.23 1.46,-1.87 1.56,-1.87 0.06,0 0.1,0.03 0.1,0.1 z"
   font-size-adjust="none"
   font-stretch="normal"
   font-style="normal"
   font-variant="normal"
   font-weight="normal"
   letter-spacing="normal"
   stroke-miterlimit="10.433"
   word-spacing="normal"
   id="path1593" />
<path
   style="font-style:normal;font-variant:normal;font-weight:normal;font-stretch:normal;letter-spacing:normal;word-spacing:normal;text-anchor:start;fill:#e0e4e7;fill-opacity:1;fill-rule:evenodd;stroke:#000000;stroke-width:0;stroke-linecap:butt;stroke-linejoin:miter;stroke-miterlimit:10.43299961;stroke-dasharray:none;stroke-opacity:1"
   inkscape:connector-curvature="0"
   d="m 233.36,699.6 0.1,0.02 0.09,0.02 0.1,0.02 0.09,0.03 0.09,0.03 0.09,0.03 0.08,0.03 0.08,0.03 0.08,0.04 0.08,0.04 0.07,0.04 0.07,0.04 0.06,0.04 0.07,0.05 0.06,0.05 0.05,0.05 0.06,0.05 0.05,0.05 0.05,0.06 0.04,0.05 0.04,0.06 0.04,0.06 0.03,0.06 0.03,0.06 0.03,0.06 0.03,0.07 0.02,0.06 0.01,0.07 0.02,0.07 0.01,0.07 v 0.07 0.07 c 0,0.91 -0.87,1.71 -2.47,1.71 l -0.13,-0.47 c 1.01,0 1.19,-0.79 1.19,-1.24 0,-0.77 -0.48,-1.38 -1.45,-1.38 h -1.56 v -0.36 h 1.94 c 0.2,0 0.67,0 1.01,-0.43 0.33,-0.41 0.33,-0.97 0.33,-1.08 0,-0.12 0,-1.39 -1.44,-1.39 v 0 h -1.84 v 2.9 0.36 2.62 h 1.82 l 0.13,0.47 h -4.33 v -0.47 h 1.08 v -5.88 h -1.08 v -0.47 h 4.63 c 1.65,0 2.49,0.88 2.49,1.85 0,0.95 -0.86,1.62 -2.04,1.71 z"
   font-size-adjust="none"
   font-stretch="normal"
   font-style="normal"
   font-variant="normal"
   font-weight="normal"
   letter-spacing="normal"
   stroke-miterlimit="10.433"
   word-spacing="normal"
   id="path1595" />
<path
   style="font-style:normal;font-variant:normal;font-weight:normal;font-stretch:normal;letter-spacing:normal;word-spacing:normal;text-anchor:start;fill:#e0e4e7;fill-opacity:1;fill-rule:evenodd;stroke:#000000;stroke-width:0;stroke-linecap:butt;stroke-linejoin:miter;stroke-miterlimit:10.43299961;stroke-dasharray:none;stroke-opacity:1"
   inkscape:connector-curvature="0"
   d="m 238.93,698.53 -0.01,0.07 v 0.08 0.07 0.08 l -0.01,0.17 -0.01,0.18 -0.02,0.18 -0.02,0.19 -0.03,0.2 -0.03,0.19 -0.04,0.21 -0.04,0.2 -0.06,0.21 -0.06,0.22 -0.07,0.21 -0.08,0.21 -0.04,0.11 -0.05,0.1 -0.04,0.11 -0.05,0.1 c -0.6,1.23 -1.46,1.87 -1.56,1.87 -0.06,0 -0.1,-0.04 -0.1,-0.1 0,-0.03 0,-0.05 0.19,-0.23 0.98,-0.98 1.55,-2.56 1.55,-4.63 0,-1.7 -0.37,-3.45 -1.61,-4.7 -0.13,-0.12 -0.13,-0.14 -0.13,-0.17 0,-0.06 0.04,-0.1 0.1,-0.1 0.1,0 1,0.67 1.59,1.94 0.5,1.09 0.63,2.19 0.63,3.03 z"
   font-size-adjust="none"
   font-stretch="normal"
   font-style="normal"
   font-variant="normal"
   font-weight="normal"
   letter-spacing="normal"
   stroke-miterlimit="10.433"
   word-spacing="normal"
   id="path1597" />
</g>    </g>
  </g>
</svg>
